<mxfile host="app.diagrams.net" modified="2024-05-02T17:39:13.632Z" agent="Mozilla/5.0 (Windows NT 10.0; Win64; x64) AppleWebKit/537.36 (KHTML, like Gecko) Chrome/124.0.0.0 Safari/537.36 Edg/124.0.0.0" etag="KdJjbSzYiMWW_nYFagas" version="24.2.7" type="device">
  <diagram name="Stránka-1" id="x8HH16_4FbfdLSYBHxFO">
    <mxGraphModel dx="1426" dy="785" grid="1" gridSize="10" guides="1" tooltips="1" connect="1" arrows="1" fold="1" page="1" pageScale="1" pageWidth="500" pageHeight="300" math="0" shadow="0">
      <root>
        <mxCell id="0" />
        <mxCell id="1" parent="0" />
        <mxCell id="OkqB5Of86qm4z5RorWIq-6" value="" style="rounded=0;whiteSpace=wrap;html=1;" vertex="1" parent="1">
          <mxGeometry x="50" y="153" width="400" height="100" as="geometry" />
        </mxCell>
        <mxCell id="OkqB5Of86qm4z5RorWIq-1" value="" style="rounded=0;whiteSpace=wrap;html=1;" vertex="1" parent="1">
          <mxGeometry x="50" y="48" width="310" height="105" as="geometry" />
        </mxCell>
        <mxCell id="OkqB5Of86qm4z5RorWIq-2" value="Gazebo simulace" style="rounded=1;whiteSpace=wrap;html=1;fillColor=#e1d5e7;strokeColor=#9673a6;" vertex="1" parent="1">
          <mxGeometry x="60" y="183" width="120" height="60" as="geometry" />
        </mxCell>
        <mxCell id="OkqB5Of86qm4z5RorWIq-3" value="Ovládání robota" style="rounded=1;whiteSpace=wrap;html=1;fillColor=#dae8fc;strokeColor=#6c8ebf;" vertex="1" parent="1">
          <mxGeometry x="60" y="83" width="120" height="60" as="geometry" />
        </mxCell>
        <mxCell id="OkqB5Of86qm4z5RorWIq-4" value="slam_toolbox&lt;div&gt;navigation2&lt;/div&gt;" style="rounded=1;whiteSpace=wrap;html=1;fillColor=#f8cecc;strokeColor=#b85450;" vertex="1" parent="1">
          <mxGeometry x="190" y="183" width="120" height="60" as="geometry" />
        </mxCell>
        <mxCell id="OkqB5Of86qm4z5RorWIq-5" value="ros2_control" style="rounded=1;whiteSpace=wrap;html=1;fillColor=#e1d5e7;strokeColor=#9673a6;" vertex="1" parent="1">
          <mxGeometry x="320" y="183" width="120" height="60" as="geometry" />
        </mxCell>
        <mxCell id="OkqB5Of86qm4z5RorWIq-7" value="Řízení komponent" style="rounded=1;whiteSpace=wrap;html=1;fillColor=#dae8fc;strokeColor=#6c8ebf;" vertex="1" parent="1">
          <mxGeometry x="195" y="83" width="150" height="60" as="geometry" />
        </mxCell>
        <mxCell id="OkqB5Of86qm4z5RorWIq-8" value="Splnění zadání" style="text;html=1;align=center;verticalAlign=middle;whiteSpace=wrap;rounded=0;" vertex="1" parent="1">
          <mxGeometry x="50" y="48" width="90" height="30" as="geometry" />
        </mxCell>
        <mxCell id="OkqB5Of86qm4z5RorWIq-9" value="Rozšíření" style="text;html=1;align=center;verticalAlign=middle;whiteSpace=wrap;rounded=0;" vertex="1" parent="1">
          <mxGeometry x="50" y="153" width="70" height="30" as="geometry" />
        </mxCell>
      </root>
    </mxGraphModel>
  </diagram>
</mxfile>
